<?xml version="1.0" encoding="utf-8"?>
<!-- Uploaded to: SVG Repo, www.svgrepo.com, Generator: SVG Repo Mixer Tools -->
<svg fill="#000000" width="800px" height="800px" viewBox="0 0 32 32" version="1.1" xmlns="http://www.w3.org/2000/svg">
<title>desert-skull</title>
<path d="M29.675 5.672c-0.496 6.193-4.838 4.911-4.838 0.634h-0c0-3.378-3.592-4.621-4.712-0.885-2.528-2.585-5.845-2.54-8.347 0.133-1.058-3.951-4.762-2.723-4.762 0.707 0 4.278-4.342 5.559-4.838-0.634-2.32 2.631-2.031 5.597 0.077 7.705 1.519 1.519 4.040 1.608 6.145 0.557-0.163 1.217-0.252 2.539-0.252 3.97 2.697 2.72 3.591 6.473 3.591 11.467 0.765 0.726 1.555 1.231 2.36 1.523 0.31-2.293 0.037-4.502-0.036-6.741l1.751 2.571 1.845-2.603c-0.046 2.24-0.235 4.479-0.046 6.719 0.791-0.3 1.581-0.792 2.359-1.469 0-4.837 0.518-8.807 3.908-11.467 0-1.377-0.082-2.654-0.233-3.833 2.064 0.951 4.479 0.822 5.952-0.65 2.108-2.108 2.397-5.074 0.077-7.705zM11.843 19.398c-0.955 0-1.815-1.376-1.921-3.073s0.582-3.073 1.537-3.073c0.955 0 1.815 1.376 1.921 3.073s-0.582 3.073-1.537 3.073zM21.799 16.325c-0.106 1.697-0.966 3.073-1.921 3.073s-1.643-1.376-1.537-3.073 0.966-3.073 1.921-3.073c0.955 0 1.643 1.376 1.537 3.073z"></path>
</svg>